<svg width="342" height="100" viewBox="0 0 342 100" xmlns="http://www.w3.org/2000/svg" fill-rule="evenodd" clip-rule="evenodd" stroke-linejoin="round" stroke-miterlimit="2"><path d="M85.514 52.295c2.074 0 3.11.778 3.11 2.204v.388c0 .649-.388 1.426-1.036 2.074a15.45 15.45 0 01-2.333 1.945 8.501 8.501 0 00-2.333 2.463c-.778 1.166-1.167 2.333-1.167 3.629v31.498c0 .908-.26 1.556-.778 2.204-.518.648-1.166.907-1.944.907-1.426 0-2.463-.518-3.37-1.426l-4.667-6.61c-2.981 2.462-6.61 4.536-11.147 5.833a41.143 41.143 0 01-13.351 2.203c-13.222 0-24.11-4.666-32.665-14C5.278 76.276 1 65.128 1 52.037c0-13.87 4.407-25.147 13.222-33.832C23.036 9.52 33.146 5.112 44.682 5.112c10.63 0 19.574 2.463 26.703 7.26 7 4.795 10.63 10.369 10.63 16.59 0 2.723-.779 4.927-2.334 6.482-1.556 1.685-3.63 2.463-6.352 2.463-2.592 0-4.925-.907-7.129-2.593-2.203-1.685-4.277-3.759-5.833-6.221-1.685-2.463-3.5-4.796-5.185-7.26a25.194 25.194 0 00-6.61-6.221c-2.593-1.685-5.574-2.593-8.815-2.593-5.444 0-9.98 2.463-13.74 7.518-3.759 5.056-5.703 11.407-5.703 18.925 0 12.703 3.11 23.592 9.333 32.536 6.221 8.944 13.61 13.48 22.295 13.48 5.055 0 8.944-.907 11.536-2.722V64.868c0-2.074-1.296-4.018-3.759-5.962-2.592-1.815-3.889-3.24-3.889-4.148v-.39c0-1.425 1.037-2.203 3.111-2.203l26.573.13zM147.215 78.608c.777-1.037 1.685-1.426 2.851-1.037 1.167.39 1.685 1.167 1.556 2.463-.389 4.537-2.852 8.944-7.259 13.222-4.537 4.277-10.63 6.351-18.536 6.351-9.592 0-17.37-2.981-23.462-9.203-6.092-6.092-9.073-14-9.073-23.72 0-9.334 3.11-16.981 9.203-22.944 6.092-5.833 13.61-8.814 22.554-8.944 7.389-.13 13.351 1.555 17.888 4.796 4.537 3.24 6.87 7.777 6.87 13.351 0 4.537-1.944 8.555-5.703 11.925-3.889 3.5-8.944 5.704-15.037 6.87-4.796 1.037-10.11 1.297-15.943.778 1.685 4.278 4.277 7.518 7.518 9.981 3.24 2.463 6.87 3.63 11.148 3.63 7.129 0 12.314-2.463 15.425-7.519zm-24.629-37.85c-3.63 0-6.48 1.686-8.684 4.926-2.334 3.24-3.37 7.389-3.37 12.444 0 2.852.259 5.574.777 8.166 4.796.39 8.685.13 11.925-.648 5.963-1.167 8.944-5.574 8.944-13.48-.13-3.241-1.037-5.834-2.722-8.167-1.814-2.203-4.148-3.24-6.87-3.24zM225.895 85.738c.13 2.074 1.037 4.018 2.463 5.833 1.426 1.814 2.203 3.24 2.203 4.147v.519c0 1.426-1.037 2.204-2.981 2.204h-22.425c-1.944 0-2.981-.778-2.981-2.204v-.519c0-.907.778-2.203 2.463-4.018 1.555-1.815 2.333-3.759 2.203-5.962l-1.296-23.98c-.648-13.092-4.407-19.574-11.277-19.574-3.5 0-6.092 1.297-8.037 3.89-1.944 2.592-2.98 6.091-2.98 10.369v29.424c0 2.074.906 4.018 2.85 5.833 1.816 1.815 2.723 3.111 2.723 4.018v.519c0 1.426-1.037 2.204-2.981 2.204h-24.11c-1.945 0-2.982-.778-2.982-2.204v-.519c0-.907.908-2.203 2.852-4.018 1.815-1.815 2.722-3.759 2.722-5.833V55.665c0-1.296-.26-2.463-.907-3.5-.648-1.037-1.426-1.814-2.204-2.333-.907-.389-1.555-1.037-2.203-1.685-.648-.648-1.037-1.426-1.037-2.074v-.518c0-.908.907-1.815 2.592-2.722l15.425-7.519c1.426-.648 2.593-.777 3.37-.259.649.648 1.037 1.556 1.037 2.981v7.26c3.76-7 10.111-10.5 19.185-10.5 6.61 0 12.184 2.204 16.85 6.61 4.537 4.408 7.26 11.407 7.907 21l1.556 23.332zM302.113 88.46c.39.648 1.686 1.685 3.63 3.11 1.944 1.426 2.852 2.723 2.852 4.019v.518c0 1.426-.778 2.204-2.463 2.204H282.41c-1.685 0-2.593-.778-2.593-2.333v-.519c0-.907.648-2.074 1.815-3.37 1.167-1.296 1.426-2.463.778-3.63l-12.833-19.313a54.033 54.033 0 01-9.333 1.166v15.296c0 1.944.908 3.889 2.852 5.703 1.944 1.815 2.852 3.24 2.852 4.278v.518c0 1.426-1.037 2.204-2.982 2.204h-24.11c-1.944 0-2.98-.778-2.98-2.204v-.518c0-1.037.907-2.463 2.592-4.278 1.555-1.814 2.463-3.759 2.463-5.703V22.223c0-2.204-.908-4.278-2.852-6.222-1.944-1.945-2.981-3.24-2.981-3.889v-.389c0-1.037.907-1.944 2.592-2.592L255.19.964c1.556-.648 2.852-.777 3.76-.259.906.648 1.295 1.556 1.295 2.722v58.72c4.796-.26 8.685-1.427 11.666-3.37 2.982-1.945 5.056-4.278 6.222-6.87 1.167-2.593 2.074-5.186 2.982-7.778.907-2.593 2.074-4.796 3.5-6.611 1.425-1.685 3.5-2.592 6.092-2.592 2.722 0 4.925.777 6.351 2.203 1.296 1.426 2.074 3.37 2.074 5.833 0 3.111-1.296 6.61-3.63 10.37-2.462 3.759-6.092 7.13-10.758 9.98l17.37 25.148zM335.037 23.778c-2.204 2.074-5.314 3.111-9.074 3.111-3.759 0-6.87-1.037-9.203-3.24-2.463-2.075-3.63-4.797-3.63-8.167 0-3.24 1.167-5.962 3.63-8.166 2.333-2.074 5.444-3.111 9.203-3.111 3.76 0 6.87 1.037 9.204 3.111 2.203 2.204 3.37 4.926 3.37 8.166 0 3.37-1.167 6.092-3.5 8.296zm-20.87 74.533c-1.944 0-2.85-.778-2.85-2.204v-.518c0-.907.777-2.204 2.462-4.018 1.685-1.815 2.463-3.76 2.463-5.833V56.443c0-2.204-.778-4.148-2.463-6.092-1.685-1.945-2.463-3.24-2.463-3.89v-.388c0-.907.907-1.815 2.722-2.722l16.203-8.037c1.685-.648 2.981-.777 3.889-.259.907.648 1.426 1.556 1.426 2.852v47.83c0 2.075.907 4.019 2.722 5.834 1.814 1.814 2.722 3.11 2.722 4.018v.518c0 1.426-1.037 2.204-2.982 2.204h-23.85z" fill="#141414" fill-rule="nonzero"/></svg>